<?xml version="1.0" encoding="UTF-8" standalone="no"?>
<!DOCTYPE svg PUBLIC "-//W3C//DTD SVG 1.1//EN"
 "http://www.w3.org/Graphics/SVG/1.1/DTD/svg11.dtd">
<!-- Generated by graphviz version 2.43.0 (0)
 -->
<!-- Title: bc&#45;lib/include/bclib.h Pages: 1 -->
<svg width="202pt" height="207pt"
 viewBox="0.00 0.00 202.00 207.00" xmlns="http://www.w3.org/2000/svg" xmlns:xlink="http://www.w3.org/1999/xlink">
<g id="graph0" class="graph" transform="scale(1 1) rotate(0) translate(4 203)">
<title>bc&#45;lib/include/bclib.h</title>
<!-- Node1 -->
<g id="node1" class="node">
<title>Node1</title>
<g id="a_node1"><a xlink:title="Main library header.">
<polygon fill="#bfbfbf" stroke="black" points="38.5,-179.5 38.5,-198.5 155.5,-198.5 155.5,-179.5 38.5,-179.5"/>
<text text-anchor="middle" x="97" y="-186.5" font-family="Helvetica,sans-Serif" font-size="10.00">bc&#45;lib/include/bclib.h</text>
</a>
</g>
</g>
<!-- Node2 -->
<g id="node2" class="node">
<title>Node2</title>
<g id="a_node2"><a xlink:href="interface_8h.html" target="_top" xlink:title="Generic block cipher interface declaration.">
<polygon fill="none" stroke="black" points="39.5,-56.5 39.5,-75.5 154.5,-75.5 154.5,-56.5 39.5,-56.5"/>
<text text-anchor="middle" x="97" y="-63.5" font-family="Helvetica,sans-Serif" font-size="10.00">common/interface.h</text>
</a>
</g>
</g>
<!-- Node1&#45;&gt;Node2 -->
<g id="edge1" class="edge">
<title>Node1&#45;&gt;Node2</title>
<path fill="none" stroke="midnightblue" d="M91.36,-179.48C85.95,-170.74 78.14,-156.56 75,-143 71.89,-129.58 71.89,-125.42 75,-112 77.23,-102.36 81.82,-92.41 86.24,-84.31"/>
<polygon fill="midnightblue" stroke="midnightblue" points="89.35,-85.92 91.36,-75.52 83.3,-82.4 89.35,-85.92"/>
</g>
<!-- Node5 -->
<g id="node5" class="node">
<title>Node5</title>
<g id="a_node5"><a xlink:href="kuznyechik_8h.html" target="_top" xlink:title="Kuznyechik block cipher.">
<polygon fill="none" stroke="black" points="84,-112.5 84,-142.5 194,-142.5 194,-112.5 84,-112.5"/>
<text text-anchor="start" x="92" y="-130.5" font-family="Helvetica,sans-Serif" font-size="10.00">ciphers/kuznyechik</text>
<text text-anchor="middle" x="139" y="-119.5" font-family="Helvetica,sans-Serif" font-size="10.00">/kuznyechik.h</text>
</a>
</g>
</g>
<!-- Node1&#45;&gt;Node5 -->
<g id="edge4" class="edge">
<title>Node1&#45;&gt;Node5</title>
<path fill="none" stroke="midnightblue" d="M103.02,-179.48C108.28,-172.02 116.16,-160.85 123.21,-150.87"/>
<polygon fill="midnightblue" stroke="midnightblue" points="126.19,-152.71 129.1,-142.52 120.48,-148.67 126.19,-152.71"/>
</g>
<!-- Node3 -->
<g id="node3" class="node">
<title>Node3</title>
<g id="a_node3"><a xlink:href="utils_8h.html" target="_top" xlink:title="Some helpers.">
<polygon fill="none" stroke="black" points="0,-0.5 0,-19.5 92,-19.5 92,-0.5 0,-0.5"/>
<text text-anchor="middle" x="46" y="-7.5" font-family="Helvetica,sans-Serif" font-size="10.00">common/utils.h</text>
</a>
</g>
</g>
<!-- Node2&#45;&gt;Node3 -->
<g id="edge2" class="edge">
<title>Node2&#45;&gt;Node3</title>
<path fill="none" stroke="midnightblue" d="M88.58,-56.08C81.15,-48.22 70.15,-36.57 61.19,-27.08"/>
<polygon fill="midnightblue" stroke="midnightblue" points="63.68,-24.62 54.26,-19.75 58.59,-29.42 63.68,-24.62"/>
</g>
<!-- Node4 -->
<g id="node4" class="node">
<title>Node4</title>
<g id="a_node4"><a xlink:title=" ">
<polygon fill="none" stroke="#bfbfbf" points="110.5,-0.5 110.5,-19.5 187.5,-19.5 187.5,-0.5 110.5,-0.5"/>
<text text-anchor="middle" x="149" y="-7.5" font-family="Helvetica,sans-Serif" font-size="10.00">emmintrin.h</text>
</a>
</g>
</g>
<!-- Node2&#45;&gt;Node4 -->
<g id="edge3" class="edge">
<title>Node2&#45;&gt;Node4</title>
<path fill="none" stroke="midnightblue" d="M105.59,-56.08C113.16,-48.22 124.38,-36.57 133.51,-27.08"/>
<polygon fill="midnightblue" stroke="midnightblue" points="136.16,-29.38 140.57,-19.75 131.12,-24.53 136.16,-29.38"/>
</g>
<!-- Node5&#45;&gt;Node2 -->
<g id="edge5" class="edge">
<title>Node5&#45;&gt;Node2</title>
<path fill="none" stroke="midnightblue" d="M129.05,-112.4C123.01,-103.84 115.26,-92.87 108.9,-83.86"/>
<polygon fill="midnightblue" stroke="midnightblue" points="111.74,-81.81 103.11,-75.66 106.02,-85.85 111.74,-81.81"/>
</g>
</g>
</svg>
