<?xml version="1.0" encoding="UTF-8" standalone="no"?>
<!DOCTYPE svg PUBLIC "-//W3C//DTD SVG 1.1//EN"
 "http://www.w3.org/Graphics/SVG/1.1/DTD/svg11.dtd">
<!-- Generated by graphviz version 2.43.0 (0)
 -->
<!-- Title: include/bclib.h Pages: 1 -->
<svg width="230pt" height="207pt"
 viewBox="0.00 0.00 230.00 207.00" xmlns="http://www.w3.org/2000/svg" xmlns:xlink="http://www.w3.org/1999/xlink">
<g id="graph0" class="graph" transform="scale(1 1) rotate(0) translate(4 203)">
<title>include/bclib.h</title>
<!-- Node1 -->
<g id="node1" class="node">
<title>Node1</title>
<g id="a_node1"><a xlink:title="Main library header.">
<polygon fill="#bfbfbf" stroke="black" points="40.5,-179.5 40.5,-198.5 127.5,-198.5 127.5,-179.5 40.5,-179.5"/>
<text text-anchor="middle" x="84" y="-186.5" font-family="Helvetica,sans-Serif" font-size="10.00">include/bclib.h</text>
</a>
</g>
</g>
<!-- Node2 -->
<g id="node2" class="node">
<title>Node2</title>
<g id="a_node2"><a xlink:href="utils_8h.html" target="_top" xlink:title="Some helpers.">
<polygon fill="none" stroke="black" points="0,-0.5 0,-19.5 92,-19.5 92,-0.5 0,-0.5"/>
<text text-anchor="middle" x="46" y="-7.5" font-family="Helvetica,sans-Serif" font-size="10.00">common/utils.h</text>
</a>
</g>
</g>
<!-- Node1&#45;&gt;Node2 -->
<g id="edge1" class="edge">
<title>Node1&#45;&gt;Node2</title>
<path fill="none" stroke="midnightblue" d="M82.17,-179.46C76.36,-152.43 58.29,-68.24 50.1,-30.11"/>
<polygon fill="midnightblue" stroke="midnightblue" points="53.43,-28.91 47.9,-19.87 46.58,-30.38 53.43,-28.91"/>
</g>
<!-- Node3 -->
<g id="node3" class="node">
<title>Node3</title>
<g id="a_node3"><a xlink:href="interface_8h.html" target="_top" xlink:title="Generic block cipher interface declaration.">
<polygon fill="none" stroke="black" points="82.5,-56.5 82.5,-75.5 197.5,-75.5 197.5,-56.5 82.5,-56.5"/>
<text text-anchor="middle" x="140" y="-63.5" font-family="Helvetica,sans-Serif" font-size="10.00">common/interface.h</text>
</a>
</g>
</g>
<!-- Node1&#45;&gt;Node3 -->
<g id="edge2" class="edge">
<title>Node1&#45;&gt;Node3</title>
<path fill="none" stroke="midnightblue" d="M84.93,-179.13C86.75,-164.48 91.62,-134.59 103,-112 108.32,-101.43 116.51,-91.12 123.83,-83.05"/>
<polygon fill="midnightblue" stroke="midnightblue" points="126.38,-85.45 130.72,-75.78 121.3,-80.63 126.38,-85.45"/>
</g>
<!-- Node5 -->
<g id="node5" class="node">
<title>Node5</title>
<g id="a_node5"><a xlink:href="kuznyechik_8h.html" target="_top" xlink:title="Kuznyechik block cipher.">
<polygon fill="none" stroke="black" points="112,-112.5 112,-142.5 222,-142.5 222,-112.5 112,-112.5"/>
<text text-anchor="start" x="120" y="-130.5" font-family="Helvetica,sans-Serif" font-size="10.00">ciphers/kuznyechik</text>
<text text-anchor="middle" x="167" y="-119.5" font-family="Helvetica,sans-Serif" font-size="10.00">/kuznyechik.h</text>
</a>
</g>
</g>
<!-- Node1&#45;&gt;Node5 -->
<g id="edge5" class="edge">
<title>Node1&#45;&gt;Node5</title>
<path fill="none" stroke="midnightblue" d="M95.89,-179.48C107.13,-171.42 124.42,-159.02 139.14,-148.47"/>
<polygon fill="midnightblue" stroke="midnightblue" points="141.35,-151.19 147.44,-142.52 137.27,-145.5 141.35,-151.19"/>
</g>
<!-- Node3&#45;&gt;Node2 -->
<g id="edge3" class="edge">
<title>Node3&#45;&gt;Node2</title>
<path fill="none" stroke="midnightblue" d="M124.9,-56.32C110.1,-47.82 87.31,-34.73 70.02,-24.8"/>
<polygon fill="midnightblue" stroke="midnightblue" points="71.48,-21.6 61.07,-19.65 67.99,-27.67 71.48,-21.6"/>
</g>
<!-- Node4 -->
<g id="node4" class="node">
<title>Node4</title>
<g id="a_node4"><a xlink:title=" ">
<polygon fill="none" stroke="#bfbfbf" points="110.5,-0.5 110.5,-19.5 187.5,-19.5 187.5,-0.5 110.5,-0.5"/>
<text text-anchor="middle" x="149" y="-7.5" font-family="Helvetica,sans-Serif" font-size="10.00">emmintrin.h</text>
</a>
</g>
</g>
<!-- Node3&#45;&gt;Node4 -->
<g id="edge4" class="edge">
<title>Node3&#45;&gt;Node4</title>
<path fill="none" stroke="midnightblue" d="M141.49,-56.08C142.68,-48.93 144.39,-38.64 145.88,-29.69"/>
<polygon fill="midnightblue" stroke="midnightblue" points="149.35,-30.19 147.54,-19.75 142.45,-29.04 149.35,-30.19"/>
</g>
<!-- Node5&#45;&gt;Node3 -->
<g id="edge6" class="edge">
<title>Node5&#45;&gt;Node3</title>
<path fill="none" stroke="midnightblue" d="M160.6,-112.4C156.88,-104.2 152.15,-93.78 148.17,-84.99"/>
<polygon fill="midnightblue" stroke="midnightblue" points="151.25,-83.32 143.93,-75.66 144.87,-86.21 151.25,-83.32"/>
</g>
</g>
</svg>
