<?xml version="1.0" encoding="UTF-8" standalone="no"?>
<!DOCTYPE svg PUBLIC "-//W3C//DTD SVG 1.1//EN"
 "http://www.w3.org/Graphics/SVG/1.1/DTD/svg11.dtd">
<!-- Generated by graphviz version 2.43.0 (0)
 -->
<!-- Title: bc&#45;lib/include Pages: 1 -->
<svg width="130pt" height="255pt"
 viewBox="0.00 0.00 130.00 255.00" xmlns="http://www.w3.org/2000/svg" xmlns:xlink="http://www.w3.org/1999/xlink">
<g id="graph0" class="graph" transform="scale(1 1) rotate(0) translate(4 251)">
<title>bc&#45;lib/include</title>
<g id="clust1" class="cluster">
<title>clusterdir_351eb9b8e4d28d14d03b8c51f28a0778</title>
<g id="a_clust1"><a xlink:href="dir_351eb9b8e4d28d14d03b8c51f28a0778.html" target="_top" xlink:title="bc&#45;lib">
<polygon fill="#ddddee" stroke="black" points="8,-8 8,-239 114,-239 114,-8 8,-8"/>
<text text-anchor="middle" x="61" y="-227" font-family="Helvetica,sans-Serif" font-size="10.00">bc&#45;lib</text>
</a>
</g>
</g>
<g id="clust2" class="cluster">
<title>clusterdir_9ebb9598a539b366c498be27f3b1de24</title>
<g id="a_clust2"><a xlink:href="dir_9ebb9598a539b366c498be27f3b1de24.html" target="_top">
<polygon fill="#eeeeff" stroke="black" points="16,-16 16,-212 106,-212 106,-16 16,-16"/>
</a>
</g>
</g>
<!-- dir_9ebb9598a539b366c498be27f3b1de24 -->
<g id="node1" class="node">
<title>dir_9ebb9598a539b366c498be27f3b1de24</title>
<text text-anchor="middle" x="61" y="-183.5" font-family="Helvetica,sans-Serif" font-size="10.00">include</text>
</g>
<!-- dir_d68e1f0f3c15984985c518250cca4ada -->
<g id="node2" class="node">
<title>dir_d68e1f0f3c15984985c518250cca4ada</title>
<g id="a_node2"><a xlink:href="dir_d68e1f0f3c15984985c518250cca4ada.html" target="_top" xlink:title="ciphers">
<polygon fill="white" stroke="red" points="78,-132 24,-132 24,-96 78,-96 78,-132"/>
<text text-anchor="middle" x="51" y="-111.5" font-family="Helvetica,sans-Serif" font-size="10.00">ciphers</text>
</a>
</g>
</g>
<!-- dir_9ebb9598a539b366c498be27f3b1de24&#45;&gt;dir_d68e1f0f3c15984985c518250cca4ada -->
<g id="edge3" class="edge">
<title>dir_9ebb9598a539b366c498be27f3b1de24&#45;&gt;dir_d68e1f0f3c15984985c518250cca4ada</title>
<path fill="none" stroke="black" d="M58.53,-167.7C57.43,-159.98 56.1,-150.71 54.87,-142.11"/>
<polygon fill="black" stroke="black" points="58.32,-141.51 53.44,-132.1 51.39,-142.5 58.32,-141.51"/>
<g id="a_edge3&#45;headlabel"><a xlink:href="dir_000001_000002.html" target="_top" xlink:title="1">
<text text-anchor="middle" x="61.64" y="-142.17" font-family="Helvetica,sans-Serif" font-size="10.00">1</text>
</a>
</g>
</g>
<!-- dir_88b8e73f3d440600ef5ced7e33eb10ac -->
<g id="node3" class="node">
<title>dir_88b8e73f3d440600ef5ced7e33eb10ac</title>
<g id="a_node3"><a xlink:href="dir_88b8e73f3d440600ef5ced7e33eb10ac.html" target="_top" xlink:title="common">
<polygon fill="white" stroke="black" points="90.5,-60 31.5,-60 31.5,-24 90.5,-24 90.5,-60"/>
<text text-anchor="middle" x="61" y="-39.5" font-family="Helvetica,sans-Serif" font-size="10.00">common</text>
</a>
</g>
</g>
<!-- dir_9ebb9598a539b366c498be27f3b1de24&#45;&gt;dir_88b8e73f3d440600ef5ced7e33eb10ac -->
<g id="edge2" class="edge">
<title>dir_9ebb9598a539b366c498be27f3b1de24&#45;&gt;dir_88b8e73f3d440600ef5ced7e33eb10ac</title>
<path fill="none" stroke="black" d="M72.05,-167.61C77.74,-157.62 84.08,-144.58 87,-132 90.62,-116.41 90.62,-111.59 87,-96 84.9,-86.96 81.03,-77.68 76.91,-69.47"/>
<polygon fill="black" stroke="black" points="79.86,-67.55 72.05,-60.39 73.69,-70.86 79.86,-67.55"/>
<g id="a_edge2&#45;headlabel"><a xlink:href="dir_000001_000004.html" target="_top" xlink:title="2">
<text text-anchor="middle" x="84.06" y="-66.88" font-family="Helvetica,sans-Serif" font-size="10.00">2</text>
</a>
</g>
</g>
<!-- dir_d68e1f0f3c15984985c518250cca4ada&#45;&gt;dir_88b8e73f3d440600ef5ced7e33eb10ac -->
<g id="edge1" class="edge">
<title>dir_d68e1f0f3c15984985c518250cca4ada&#45;&gt;dir_88b8e73f3d440600ef5ced7e33eb10ac</title>
<path fill="none" stroke="black" d="M53.47,-95.7C54.57,-87.98 55.9,-78.71 57.13,-70.11"/>
<polygon fill="black" stroke="black" points="60.61,-70.5 58.56,-60.1 53.68,-69.51 60.61,-70.5"/>
<g id="a_edge1&#45;headlabel"><a xlink:href="dir_000002_000004.html" target="_top" xlink:title="1">
<text text-anchor="middle" x="62.91" y="-71.96" font-family="Helvetica,sans-Serif" font-size="10.00">1</text>
</a>
</g>
</g>
</g>
</svg>
