<?xml version="1.0" encoding="UTF-8" standalone="no"?>
<!DOCTYPE svg PUBLIC "-//W3C//DTD SVG 1.1//EN"
 "http://www.w3.org/Graphics/SVG/1.1/DTD/svg11.dtd">
<!-- Generated by graphviz version 2.43.0 (0)
 -->
<!-- Title: include/common/interface.h Pages: 1 -->
<svg width="240pt" height="162pt"
 viewBox="0.00 0.00 240.00 162.00" xmlns="http://www.w3.org/2000/svg" xmlns:xlink="http://www.w3.org/1999/xlink">
<g id="graph0" class="graph" transform="scale(1 1) rotate(0) translate(4 158)">
<title>include/common/interface.h</title>
<!-- Node1 -->
<g id="node1" class="node">
<title>Node1</title>
<g id="a_node1"><a xlink:title="Generic block cipher interface declaration.">
<polygon fill="#bfbfbf" stroke="black" points="18,-134.5 18,-153.5 171,-153.5 171,-134.5 18,-134.5"/>
<text text-anchor="middle" x="94.5" y="-141.5" font-family="Helvetica,sans-Serif" font-size="10.00">include/common/interface.h</text>
</a>
</g>
</g>
<!-- Node2 -->
<g id="node2" class="node">
<title>Node2</title>
<g id="a_node2"><a xlink:href="bclib_8h.html" target="_top" xlink:title="Main library header.">
<polygon fill="none" stroke="black" points="0,-6 0,-25 87,-25 87,-6 0,-6"/>
<text text-anchor="middle" x="43.5" y="-13" font-family="Helvetica,sans-Serif" font-size="10.00">include/bclib.h</text>
</a>
</g>
</g>
<!-- Node1&#45;&gt;Node2 -->
<g id="edge1" class="edge">
<title>Node1&#45;&gt;Node2</title>
<path fill="none" stroke="midnightblue" d="M80.36,-126.45C74.07,-118.33 67.07,-108.14 62.5,-98 51.27,-73.1 46.29,-40.82 44.43,-25.43"/>
<polygon fill="midnightblue" stroke="midnightblue" points="77.74,-128.77 86.76,-134.34 83.18,-124.36 77.74,-128.77"/>
</g>
<!-- Node3 -->
<g id="node3" class="node">
<title>Node3</title>
<g id="a_node3"><a xlink:href="kuznyechik_8h.html" target="_top" xlink:title="Kuznyechik block cipher.">
<polygon fill="none" stroke="black" points="71.5,-67.5 71.5,-97.5 219.5,-97.5 219.5,-67.5 71.5,-67.5"/>
<text text-anchor="start" x="79.5" y="-85.5" font-family="Helvetica,sans-Serif" font-size="10.00">include/ciphers/kuznyechik</text>
<text text-anchor="middle" x="145.5" y="-74.5" font-family="Helvetica,sans-Serif" font-size="10.00">/kuznyechik.h</text>
</a>
</g>
</g>
<!-- Node1&#45;&gt;Node3 -->
<g id="edge2" class="edge">
<title>Node1&#45;&gt;Node3</title>
<path fill="none" stroke="midnightblue" d="M108.38,-126.81C116.23,-117.65 125.95,-106.3 133.48,-97.52"/>
<polygon fill="midnightblue" stroke="midnightblue" points="105.66,-124.6 101.81,-134.48 110.97,-129.16 105.66,-124.6"/>
</g>
<!-- Node3&#45;&gt;Node2 -->
<g id="edge3" class="edge">
<title>Node3&#45;&gt;Node2</title>
<path fill="none" stroke="midnightblue" d="M114.86,-61.97C95.52,-49.65 71.5,-34.35 56.85,-25.01"/>
<polygon fill="midnightblue" stroke="midnightblue" points="113.05,-64.97 123.37,-67.4 116.82,-59.07 113.05,-64.97"/>
</g>
<!-- Node4 -->
<g id="node4" class="node">
<title>Node4</title>
<g id="a_node4"><a xlink:href="kuznyechik_8c.html" target="_top" xlink:title="Kuznyechik block cipher.">
<polygon fill="none" stroke="black" points="105,-0.5 105,-30.5 232,-30.5 232,-0.5 105,-0.5"/>
<text text-anchor="start" x="113" y="-18.5" font-family="Helvetica,sans-Serif" font-size="10.00">src/ciphers/kuznyechik</text>
<text text-anchor="middle" x="168.5" y="-7.5" font-family="Helvetica,sans-Serif" font-size="10.00">/kuznyechik.c</text>
</a>
</g>
</g>
<!-- Node3&#45;&gt;Node4 -->
<g id="edge4" class="edge">
<title>Node3&#45;&gt;Node4</title>
<path fill="none" stroke="midnightblue" d="M153.92,-57.7C157.15,-48.59 160.72,-38.49 163.52,-30.58"/>
<polygon fill="midnightblue" stroke="midnightblue" points="150.53,-56.8 150.49,-67.4 157.13,-59.14 150.53,-56.8"/>
</g>
</g>
</svg>
