<?xml version="1.0" encoding="UTF-8" standalone="no"?>
<!DOCTYPE svg PUBLIC "-//W3C//DTD SVG 1.1//EN"
 "http://www.w3.org/Graphics/SVG/1.1/DTD/svg11.dtd">
<!-- Generated by graphviz version 2.43.0 (0)
 -->
<!-- Title: bc&#45;lib/include/common/interface.h Pages: 1 -->
<svg width="284pt" height="173pt"
 viewBox="0.00 0.00 283.50 173.00" xmlns="http://www.w3.org/2000/svg" xmlns:xlink="http://www.w3.org/1999/xlink">
<g id="graph0" class="graph" transform="scale(1 1) rotate(0) translate(4 169)">
<title>bc&#45;lib/include/common/interface.h</title>
<!-- Node1 -->
<g id="node1" class="node">
<title>Node1</title>
<g id="a_node1"><a xlink:title="Generic block cipher interface declaration.">
<polygon fill="#bfbfbf" stroke="black" points="43.5,-134.5 43.5,-164.5 171.5,-164.5 171.5,-134.5 43.5,-134.5"/>
<text text-anchor="start" x="51.5" y="-152.5" font-family="Helvetica,sans-Serif" font-size="10.00">bc&#45;lib/include/common</text>
<text text-anchor="middle" x="107.5" y="-141.5" font-family="Helvetica,sans-Serif" font-size="10.00">/interface.h</text>
</a>
</g>
</g>
<!-- Node2 -->
<g id="node2" class="node">
<title>Node2</title>
<g id="a_node2"><a xlink:href="bclib_8h.html" target="_top" xlink:title="Main library header.">
<polygon fill="none" stroke="black" points="0,-6 0,-25 117,-25 117,-6 0,-6"/>
<text text-anchor="middle" x="58.5" y="-13" font-family="Helvetica,sans-Serif" font-size="10.00">bc&#45;lib/include/bclib.h</text>
</a>
</g>
</g>
<!-- Node1&#45;&gt;Node2 -->
<g id="edge1" class="edge">
<title>Node1&#45;&gt;Node2</title>
<path fill="none" stroke="midnightblue" d="M92.71,-125.89C87.65,-117.41 82.31,-107.51 78.5,-98 68.32,-72.57 62.3,-40.54 59.83,-25.31"/>
<polygon fill="midnightblue" stroke="midnightblue" points="89.77,-127.79 98,-134.46 95.72,-124.11 89.77,-127.79"/>
</g>
<!-- Node3 -->
<g id="node3" class="node">
<title>Node3</title>
<g id="a_node3"><a xlink:href="kuznyechik_8h.html" target="_top" xlink:title="Kuznyechik block cipher.">
<polygon fill="none" stroke="black" points="87,-67.5 87,-97.5 228,-97.5 228,-67.5 87,-67.5"/>
<text text-anchor="start" x="95" y="-85.5" font-family="Helvetica,sans-Serif" font-size="10.00">bc&#45;lib/include/ciphers</text>
<text text-anchor="middle" x="157.5" y="-74.5" font-family="Helvetica,sans-Serif" font-size="10.00">/kuznyechik/kuznyechik.h</text>
</a>
</g>
</g>
<!-- Node1&#45;&gt;Node3 -->
<g id="edge2" class="edge">
<title>Node1&#45;&gt;Node3</title>
<path fill="none" stroke="midnightblue" d="M124.46,-126.45C131.81,-116.9 140.19,-106 146.67,-97.58"/>
<polygon fill="midnightblue" stroke="midnightblue" points="121.67,-124.34 118.35,-134.4 127.22,-128.6 121.67,-124.34"/>
</g>
<!-- Node3&#45;&gt;Node2 -->
<g id="edge3" class="edge">
<title>Node3&#45;&gt;Node2</title>
<path fill="none" stroke="midnightblue" d="M127.51,-61.81C108.78,-49.51 85.62,-34.3 71.46,-25.01"/>
<polygon fill="midnightblue" stroke="midnightblue" points="125.74,-64.83 136.02,-67.4 129.58,-58.98 125.74,-64.83"/>
</g>
<!-- Node4 -->
<g id="node4" class="node">
<title>Node4</title>
<g id="a_node4"><a xlink:href="kuznyechik_8c.html" target="_top" xlink:title="Kuznyechik block cipher.">
<polygon fill="none" stroke="black" points="135.5,-0.5 135.5,-30.5 275.5,-30.5 275.5,-0.5 135.5,-0.5"/>
<text text-anchor="start" x="143.5" y="-18.5" font-family="Helvetica,sans-Serif" font-size="10.00">bc&#45;lib/src/ciphers</text>
<text text-anchor="middle" x="205.5" y="-7.5" font-family="Helvetica,sans-Serif" font-size="10.00">/kuznyechik/kuznyechik.c</text>
</a>
</g>
</g>
<!-- Node3&#45;&gt;Node4 -->
<g id="edge4" class="edge">
<title>Node3&#45;&gt;Node4</title>
<path fill="none" stroke="midnightblue" d="M174,-59.16C181,-49.68 188.94,-38.92 195.11,-30.58"/>
<polygon fill="midnightblue" stroke="midnightblue" points="171.04,-57.27 167.92,-67.4 176.67,-61.43 171.04,-57.27"/>
</g>
</g>
</svg>
