<?xml version="1.0" encoding="UTF-8" standalone="no"?>
<!DOCTYPE svg PUBLIC "-//W3C//DTD SVG 1.1//EN"
 "http://www.w3.org/Graphics/SVG/1.1/DTD/svg11.dtd">
<!-- Generated by graphviz version 2.43.0 (0)
 -->
<!-- Title: bc&#45;lib/src/ciphers/kuznyechik/kuznyechik.c Pages: 1 -->
<svg width="377pt" height="218pt"
 viewBox="0.00 0.00 376.50 218.00" xmlns="http://www.w3.org/2000/svg" xmlns:xlink="http://www.w3.org/1999/xlink">
<g id="graph0" class="graph" transform="scale(1 1) rotate(0) translate(4 214)">
<title>bc&#45;lib/src/ciphers/kuznyechik/kuznyechik.c</title>
<!-- Node1 -->
<g id="node1" class="node">
<title>Node1</title>
<g id="a_node1"><a xlink:title="Kuznyechik block cipher.">
<polygon fill="#bfbfbf" stroke="black" points="114,-179.5 114,-209.5 254,-209.5 254,-179.5 114,-179.5"/>
<text text-anchor="start" x="122" y="-197.5" font-family="Helvetica,sans-Serif" font-size="10.00">bc&#45;lib/src/ciphers</text>
<text text-anchor="middle" x="184" y="-186.5" font-family="Helvetica,sans-Serif" font-size="10.00">/kuznyechik/kuznyechik.c</text>
</a>
</g>
</g>
<!-- Node2 -->
<g id="node2" class="node">
<title>Node2</title>
<g id="a_node2"><a xlink:href="kuznyechik_8h.html" target="_top" xlink:title="Kuznyechik block cipher.">
<polygon fill="none" stroke="black" points="45,-112.5 45,-142.5 155,-142.5 155,-112.5 45,-112.5"/>
<text text-anchor="start" x="53" y="-130.5" font-family="Helvetica,sans-Serif" font-size="10.00">ciphers/kuznyechik</text>
<text text-anchor="middle" x="100" y="-119.5" font-family="Helvetica,sans-Serif" font-size="10.00">/kuznyechik.h</text>
</a>
</g>
</g>
<!-- Node1&#45;&gt;Node2 -->
<g id="edge1" class="edge">
<title>Node1&#45;&gt;Node2</title>
<path fill="none" stroke="midnightblue" d="M165.77,-179.4C154.22,-170.45 139.08,-158.74 126.24,-148.8"/>
<polygon fill="midnightblue" stroke="midnightblue" points="128.24,-145.93 118.19,-142.58 123.96,-151.46 128.24,-145.93"/>
</g>
<!-- Node4 -->
<g id="node4" class="node">
<title>Node4</title>
<g id="a_node4"><a xlink:href="utils_8h.html" target="_top" xlink:title="Some helpers.">
<polygon fill="none" stroke="black" points="0,-0.5 0,-19.5 92,-19.5 92,-0.5 0,-0.5"/>
<text text-anchor="middle" x="46" y="-7.5" font-family="Helvetica,sans-Serif" font-size="10.00">common/utils.h</text>
</a>
</g>
</g>
<!-- Node1&#45;&gt;Node4 -->
<g id="edge5" class="edge">
<title>Node1&#45;&gt;Node4</title>
<path fill="none" stroke="midnightblue" d="M113.85,-186.37C85.25,-179.73 54.6,-167.05 36,-143 10.2,-109.63 26.54,-56.25 37.85,-28.71"/>
<polygon fill="midnightblue" stroke="midnightblue" points="41.07,-30.09 41.84,-19.52 34.65,-27.3 41.07,-30.09"/>
</g>
<!-- Node5 -->
<g id="node5" class="node">
<title>Node5</title>
<g id="a_node5"><a xlink:title=" ">
<polygon fill="none" stroke="#bfbfbf" points="127.5,-0.5 127.5,-19.5 204.5,-19.5 204.5,-0.5 127.5,-0.5"/>
<text text-anchor="middle" x="166" y="-7.5" font-family="Helvetica,sans-Serif" font-size="10.00">emmintrin.h</text>
</a>
</g>
</g>
<!-- Node1&#45;&gt;Node5 -->
<g id="edge8" class="edge">
<title>Node1&#45;&gt;Node5</title>
<path fill="none" stroke="midnightblue" d="M182.62,-179.48C179.42,-147.1 171.53,-67.04 167.89,-30.16"/>
<polygon fill="midnightblue" stroke="midnightblue" points="171.33,-29.43 166.87,-19.82 164.37,-30.11 171.33,-29.43"/>
</g>
<!-- Node6 -->
<g id="node6" class="node">
<title>Node6</title>
<g id="a_node6"><a xlink:title=" ">
<polygon fill="none" stroke="#bfbfbf" points="212.5,-118 212.5,-137 279.5,-137 279.5,-118 212.5,-118"/>
<text text-anchor="middle" x="246" y="-125" font-family="Helvetica,sans-Serif" font-size="10.00">galoislib.h</text>
</a>
</g>
</g>
<!-- Node1&#45;&gt;Node6 -->
<g id="edge6" class="edge">
<title>Node1&#45;&gt;Node6</title>
<path fill="none" stroke="midnightblue" d="M197.45,-179.4C207.22,-169.16 220.44,-155.3 230.62,-144.62"/>
<polygon fill="midnightblue" stroke="midnightblue" points="233.34,-146.85 237.71,-137.19 228.27,-142.01 233.34,-146.85"/>
</g>
<!-- Node7 -->
<g id="node7" class="node">
<title>Node7</title>
<g id="a_node7"><a xlink:title=" ">
<polygon fill="none" stroke="#bfbfbf" points="297.5,-118 297.5,-137 368.5,-137 368.5,-118 297.5,-118"/>
<text text-anchor="middle" x="333" y="-125" font-family="Helvetica,sans-Serif" font-size="10.00">mmintrin.h</text>
</a>
</g>
</g>
<!-- Node1&#45;&gt;Node7 -->
<g id="edge7" class="edge">
<title>Node1&#45;&gt;Node7</title>
<path fill="none" stroke="midnightblue" d="M216.33,-179.4C242.47,-167.99 278.95,-152.08 304.12,-141.1"/>
<polygon fill="midnightblue" stroke="midnightblue" points="305.73,-144.21 313.5,-137.01 302.93,-137.8 305.73,-144.21"/>
</g>
<!-- Node3 -->
<g id="node3" class="node">
<title>Node3</title>
<g id="a_node3"><a xlink:href="interface_8h.html" target="_top" xlink:title="Generic block cipher interface declaration.">
<polygon fill="none" stroke="black" points="40.5,-56.5 40.5,-75.5 155.5,-75.5 155.5,-56.5 40.5,-56.5"/>
<text text-anchor="middle" x="98" y="-63.5" font-family="Helvetica,sans-Serif" font-size="10.00">common/interface.h</text>
</a>
</g>
</g>
<!-- Node2&#45;&gt;Node3 -->
<g id="edge2" class="edge">
<title>Node2&#45;&gt;Node3</title>
<path fill="none" stroke="midnightblue" d="M99.53,-112.4C99.26,-104.47 98.92,-94.46 98.63,-85.86"/>
<polygon fill="midnightblue" stroke="midnightblue" points="102.13,-85.53 98.29,-75.66 95.13,-85.77 102.13,-85.53"/>
</g>
<!-- Node3&#45;&gt;Node4 -->
<g id="edge3" class="edge">
<title>Node3&#45;&gt;Node4</title>
<path fill="none" stroke="midnightblue" d="M89.41,-56.08C81.84,-48.22 70.62,-36.57 61.49,-27.08"/>
<polygon fill="midnightblue" stroke="midnightblue" points="63.88,-24.53 54.43,-19.75 58.84,-29.38 63.88,-24.53"/>
</g>
<!-- Node3&#45;&gt;Node5 -->
<g id="edge4" class="edge">
<title>Node3&#45;&gt;Node5</title>
<path fill="none" stroke="midnightblue" d="M108.93,-56.32C119.17,-48.18 134.72,-35.84 147,-26.09"/>
<polygon fill="midnightblue" stroke="midnightblue" points="149.22,-28.79 154.88,-19.83 144.87,-23.31 149.22,-28.79"/>
</g>
</g>
</svg>
