<?xml version="1.0" encoding="UTF-8" standalone="no"?>
<!DOCTYPE svg PUBLIC "-//W3C//DTD SVG 1.1//EN"
 "http://www.w3.org/Graphics/SVG/1.1/DTD/svg11.dtd">
<!-- Generated by graphviz version 2.43.0 (0)
 -->
<!-- Title: bc&#45;lib/include/common/utils.h Pages: 1 -->
<svg width="297pt" height="240pt"
 viewBox="0.00 0.00 296.50 240.00" xmlns="http://www.w3.org/2000/svg" xmlns:xlink="http://www.w3.org/1999/xlink">
<g id="graph0" class="graph" transform="scale(1 1) rotate(0) translate(4 236)">
<title>bc&#45;lib/include/common/utils.h</title>
<!-- Node1 -->
<g id="node1" class="node">
<title>Node1</title>
<g id="a_node1"><a xlink:title="Some helpers.">
<polygon fill="#bfbfbf" stroke="black" points="117.5,-201.5 117.5,-231.5 245.5,-231.5 245.5,-201.5 117.5,-201.5"/>
<text text-anchor="start" x="125.5" y="-219.5" font-family="Helvetica,sans-Serif" font-size="10.00">bc&#45;lib/include/common</text>
<text text-anchor="middle" x="181.5" y="-208.5" font-family="Helvetica,sans-Serif" font-size="10.00">/utils.h</text>
</a>
</g>
</g>
<!-- Node2 -->
<g id="node2" class="node">
<title>Node2</title>
<g id="a_node2"><a xlink:href="interface_8h.html" target="_top" xlink:title="Generic block cipher interface declaration.">
<polygon fill="none" stroke="black" points="68.5,-134.5 68.5,-164.5 196.5,-164.5 196.5,-134.5 68.5,-134.5"/>
<text text-anchor="start" x="76.5" y="-152.5" font-family="Helvetica,sans-Serif" font-size="10.00">bc&#45;lib/include/common</text>
<text text-anchor="middle" x="132.5" y="-141.5" font-family="Helvetica,sans-Serif" font-size="10.00">/interface.h</text>
</a>
</g>
</g>
<!-- Node1&#45;&gt;Node2 -->
<g id="edge1" class="edge">
<title>Node1&#45;&gt;Node2</title>
<path fill="none" stroke="midnightblue" d="M164.66,-193.16C157.51,-183.68 149.4,-172.92 143.11,-164.58"/>
<polygon fill="midnightblue" stroke="midnightblue" points="162.05,-195.52 170.87,-201.4 167.64,-191.3 162.05,-195.52"/>
</g>
<!-- Node5 -->
<g id="node5" class="node">
<title>Node5</title>
<g id="a_node5"><a xlink:href="kuznyechik_8c.html" target="_top" xlink:title="Kuznyechik block cipher.">
<polygon fill="none" stroke="black" points="148.5,-0.5 148.5,-30.5 288.5,-30.5 288.5,-0.5 148.5,-0.5"/>
<text text-anchor="start" x="156.5" y="-18.5" font-family="Helvetica,sans-Serif" font-size="10.00">bc&#45;lib/src/ciphers</text>
<text text-anchor="middle" x="218.5" y="-7.5" font-family="Helvetica,sans-Serif" font-size="10.00">/kuznyechik/kuznyechik.c</text>
</a>
</g>
</g>
<!-- Node1&#45;&gt;Node5 -->
<g id="edge6" class="edge">
<title>Node1&#45;&gt;Node5</title>
<path fill="none" stroke="midnightblue" d="M194.63,-192.32C198.79,-183.96 202.96,-174.29 205.5,-165 218.59,-117.06 219.36,-57.5 218.92,-30.72"/>
<polygon fill="midnightblue" stroke="midnightblue" points="191.39,-190.96 189.85,-201.44 197.59,-194.21 191.39,-190.96"/>
</g>
<!-- Node3 -->
<g id="node3" class="node">
<title>Node3</title>
<g id="a_node3"><a xlink:href="bclib_8h.html" target="_top" xlink:title="Main library header.">
<polygon fill="none" stroke="black" points="0,-6 0,-25 117,-25 117,-6 0,-6"/>
<text text-anchor="middle" x="58.5" y="-13" font-family="Helvetica,sans-Serif" font-size="10.00">bc&#45;lib/include/bclib.h</text>
</a>
</g>
</g>
<!-- Node2&#45;&gt;Node3 -->
<g id="edge2" class="edge">
<title>Node2&#45;&gt;Node3</title>
<path fill="none" stroke="midnightblue" d="M85.66,-129.53C72.57,-121.8 59.91,-111.44 52.5,-98 39.42,-74.27 49.2,-40.58 55.01,-25"/>
<polygon fill="midnightblue" stroke="midnightblue" points="84.27,-132.76 94.73,-134.47 87.62,-126.61 84.27,-132.76"/>
</g>
<!-- Node4 -->
<g id="node4" class="node">
<title>Node4</title>
<g id="a_node4"><a xlink:href="kuznyechik_8h.html" target="_top" xlink:title="Kuznyechik block cipher.">
<polygon fill="none" stroke="black" points="62,-67.5 62,-97.5 203,-97.5 203,-67.5 62,-67.5"/>
<text text-anchor="start" x="70" y="-85.5" font-family="Helvetica,sans-Serif" font-size="10.00">bc&#45;lib/include/ciphers</text>
<text text-anchor="middle" x="132.5" y="-74.5" font-family="Helvetica,sans-Serif" font-size="10.00">/kuznyechik/kuznyechik.h</text>
</a>
</g>
</g>
<!-- Node2&#45;&gt;Node4 -->
<g id="edge3" class="edge">
<title>Node2&#45;&gt;Node4</title>
<path fill="none" stroke="midnightblue" d="M132.5,-124.11C132.5,-115.15 132.5,-105.32 132.5,-97.58"/>
<polygon fill="midnightblue" stroke="midnightblue" points="129,-124.4 132.5,-134.4 136,-124.4 129,-124.4"/>
</g>
<!-- Node4&#45;&gt;Node3 -->
<g id="edge4" class="edge">
<title>Node4&#45;&gt;Node3</title>
<path fill="none" stroke="midnightblue" d="M108.79,-60.67C95.13,-48.67 78.67,-34.22 68.4,-25.19"/>
<polygon fill="midnightblue" stroke="midnightblue" points="106.62,-63.43 116.44,-67.4 111.24,-58.17 106.62,-63.43"/>
</g>
<!-- Node4&#45;&gt;Node5 -->
<g id="edge5" class="edge">
<title>Node4&#45;&gt;Node5</title>
<path fill="none" stroke="midnightblue" d="M159.4,-61.17C172.55,-51.23 188.05,-39.51 199.88,-30.58"/>
<polygon fill="midnightblue" stroke="midnightblue" points="157.03,-58.57 151.16,-67.4 161.25,-64.16 157.03,-58.57"/>
</g>
</g>
</svg>
