<?xml version="1.0" encoding="UTF-8" standalone="no"?>
<!DOCTYPE svg PUBLIC "-//W3C//DTD SVG 1.1//EN"
 "http://www.w3.org/Graphics/SVG/1.1/DTD/svg11.dtd">
<!-- Generated by graphviz version 2.43.0 (0)
 -->
<!-- Title: include/common/utils.h Pages: 1 -->
<svg width="279pt" height="218pt"
 viewBox="0.00 0.00 279.00 218.00" xmlns="http://www.w3.org/2000/svg" xmlns:xlink="http://www.w3.org/1999/xlink">
<g id="graph0" class="graph" transform="scale(1 1) rotate(0) translate(4 214)">
<title>include/common/utils.h</title>
<!-- Node1 -->
<g id="node1" class="node">
<title>Node1</title>
<g id="a_node1"><a xlink:title="Some helpers.">
<polygon fill="#bfbfbf" stroke="black" points="61,-190.5 61,-209.5 192,-209.5 192,-190.5 61,-190.5"/>
<text text-anchor="middle" x="126.5" y="-197.5" font-family="Helvetica,sans-Serif" font-size="10.00">include/common/utils.h</text>
</a>
</g>
</g>
<!-- Node2 -->
<g id="node2" class="node">
<title>Node2</title>
<g id="a_node2"><a xlink:href="bclib_8h.html" target="_top" xlink:title="Main library header.">
<polygon fill="none" stroke="black" points="0,-6 0,-25 87,-25 87,-6 0,-6"/>
<text text-anchor="middle" x="43.5" y="-13" font-family="Helvetica,sans-Serif" font-size="10.00">include/bclib.h</text>
</a>
</g>
</g>
<!-- Node1&#45;&gt;Node2 -->
<g id="edge1" class="edge">
<title>Node1&#45;&gt;Node2</title>
<path fill="none" stroke="midnightblue" d="M82.88,-186.85C66.65,-179.98 49.91,-169.54 40.5,-154 14.9,-111.72 32.66,-47.91 40.4,-25.04"/>
<polygon fill="midnightblue" stroke="midnightblue" points="81.73,-190.15 92.32,-190.49 84.25,-183.63 81.73,-190.15"/>
</g>
<!-- Node3 -->
<g id="node3" class="node">
<title>Node3</title>
<g id="a_node3"><a xlink:href="interface_8h.html" target="_top" xlink:title="Generic block cipher interface declaration.">
<polygon fill="none" stroke="black" points="50,-134.5 50,-153.5 203,-153.5 203,-134.5 50,-134.5"/>
<text text-anchor="middle" x="126.5" y="-141.5" font-family="Helvetica,sans-Serif" font-size="10.00">include/common/interface.h</text>
</a>
</g>
</g>
<!-- Node1&#45;&gt;Node3 -->
<g id="edge2" class="edge">
<title>Node1&#45;&gt;Node3</title>
<path fill="none" stroke="midnightblue" d="M126.5,-179.8C126.5,-170.91 126.5,-160.78 126.5,-153.75"/>
<polygon fill="midnightblue" stroke="midnightblue" points="123,-180.08 126.5,-190.08 130,-180.08 123,-180.08"/>
</g>
<!-- Node5 -->
<g id="node5" class="node">
<title>Node5</title>
<g id="a_node5"><a xlink:href="kuznyechik_8c.html" target="_top" xlink:title="Kuznyechik block cipher.">
<polygon fill="none" stroke="black" points="144,-0.5 144,-30.5 271,-30.5 271,-0.5 144,-0.5"/>
<text text-anchor="start" x="152" y="-18.5" font-family="Helvetica,sans-Serif" font-size="10.00">src/ciphers/kuznyechik</text>
<text text-anchor="middle" x="207.5" y="-7.5" font-family="Helvetica,sans-Serif" font-size="10.00">/kuznyechik.c</text>
</a>
</g>
</g>
<!-- Node1&#45;&gt;Node5 -->
<g id="edge7" class="edge">
<title>Node1&#45;&gt;Node5</title>
<path fill="none" stroke="midnightblue" d="M165.1,-186.67C181.82,-179.54 200.31,-168.96 212.5,-154 237.33,-123.52 236.2,-105.55 228.5,-67 225.93,-54.15 220.03,-40.48 215.14,-30.61"/>
<polygon fill="midnightblue" stroke="midnightblue" points="163.52,-183.53 155.52,-190.47 166.11,-190.04 163.52,-183.53"/>
</g>
<!-- Node3&#45;&gt;Node2 -->
<g id="edge3" class="edge">
<title>Node3&#45;&gt;Node2</title>
<path fill="none" stroke="midnightblue" d="M98.67,-129.51C85.83,-121.94 71.49,-111.32 62.5,-98 46.98,-75 44.04,-40.95 43.55,-25.15"/>
<polygon fill="midnightblue" stroke="midnightblue" points="97.2,-132.7 107.65,-134.48 100.59,-126.57 97.2,-132.7"/>
</g>
<!-- Node4 -->
<g id="node4" class="node">
<title>Node4</title>
<g id="a_node4"><a xlink:href="kuznyechik_8h.html" target="_top" xlink:title="Kuznyechik block cipher.">
<polygon fill="none" stroke="black" points="71.5,-67.5 71.5,-97.5 219.5,-97.5 219.5,-67.5 71.5,-67.5"/>
<text text-anchor="start" x="79.5" y="-85.5" font-family="Helvetica,sans-Serif" font-size="10.00">include/ciphers/kuznyechik</text>
<text text-anchor="middle" x="145.5" y="-74.5" font-family="Helvetica,sans-Serif" font-size="10.00">/kuznyechik.h</text>
</a>
</g>
</g>
<!-- Node3&#45;&gt;Node4 -->
<g id="edge4" class="edge">
<title>Node3&#45;&gt;Node4</title>
<path fill="none" stroke="midnightblue" d="M132.31,-124.82C135.11,-116.04 138.42,-105.68 141.02,-97.52"/>
<polygon fill="midnightblue" stroke="midnightblue" points="128.93,-123.88 129.22,-134.48 135.6,-126.01 128.93,-123.88"/>
</g>
<!-- Node4&#45;&gt;Node2 -->
<g id="edge5" class="edge">
<title>Node4&#45;&gt;Node2</title>
<path fill="none" stroke="midnightblue" d="M114.86,-61.97C95.52,-49.65 71.5,-34.35 56.85,-25.01"/>
<polygon fill="midnightblue" stroke="midnightblue" points="113.05,-64.97 123.37,-67.4 116.82,-59.07 113.05,-64.97"/>
</g>
<!-- Node4&#45;&gt;Node5 -->
<g id="edge6" class="edge">
<title>Node4&#45;&gt;Node5</title>
<path fill="none" stroke="midnightblue" d="M165.98,-60.02C175.22,-50.34 185.87,-39.17 194.07,-30.58"/>
<polygon fill="midnightblue" stroke="midnightblue" points="163.32,-57.74 158.95,-67.4 168.39,-62.58 163.32,-57.74"/>
</g>
</g>
</svg>
